<mxfile host="app.diagrams.net" modified="2021-06-07T06:03:56.698Z" agent="5.0 (Macintosh; Intel Mac OS X 10_15_7) AppleWebKit/537.36 (KHTML, like Gecko) Chrome/90.0.4430.72 Safari/537.36 Edg/90.0.818.42" etag="Mb7gbcQMUYn9a9VozQzY" version="14.7.6" type="github">
  <diagram id="ntWypxr66R623RXx5sm8" name="Page-1">
    <mxGraphModel dx="652" dy="413" grid="1" gridSize="10" guides="1" tooltips="1" connect="1" arrows="1" fold="1" page="1" pageScale="1" pageWidth="827" pageHeight="1169" math="0" shadow="0">
      <root>
        <mxCell id="0" />
        <mxCell id="1" parent="0" />
        <mxCell id="Ax0g_Lcv7hbXgT3HPlpm-1" value="权限代理" style="rounded=0;whiteSpace=wrap;html=1;" vertex="1" parent="1">
          <mxGeometry x="40" y="250" width="440" height="60" as="geometry" />
        </mxCell>
        <mxCell id="Ax0g_Lcv7hbXgT3HPlpm-6" value="" style="edgeStyle=orthogonalEdgeStyle;rounded=0;orthogonalLoop=1;jettySize=auto;html=1;" edge="1" parent="1" source="Ax0g_Lcv7hbXgT3HPlpm-2" target="Ax0g_Lcv7hbXgT3HPlpm-1">
          <mxGeometry relative="1" as="geometry">
            <Array as="points">
              <mxPoint x="100" y="240" />
              <mxPoint x="100" y="240" />
            </Array>
          </mxGeometry>
        </mxCell>
        <mxCell id="Ax0g_Lcv7hbXgT3HPlpm-2" value="用户" style="rounded=0;whiteSpace=wrap;html=1;" vertex="1" parent="1">
          <mxGeometry x="40" y="160" width="120" height="40" as="geometry" />
        </mxCell>
        <mxCell id="Ax0g_Lcv7hbXgT3HPlpm-7" value="" style="edgeStyle=orthogonalEdgeStyle;rounded=0;orthogonalLoop=1;jettySize=auto;html=1;" edge="1" parent="1" source="Ax0g_Lcv7hbXgT3HPlpm-3" target="Ax0g_Lcv7hbXgT3HPlpm-1">
          <mxGeometry relative="1" as="geometry" />
        </mxCell>
        <mxCell id="Ax0g_Lcv7hbXgT3HPlpm-3" value="用户" style="rounded=0;whiteSpace=wrap;html=1;" vertex="1" parent="1">
          <mxGeometry x="200" y="160" width="120" height="40" as="geometry" />
        </mxCell>
        <mxCell id="Ax0g_Lcv7hbXgT3HPlpm-8" value="" style="edgeStyle=orthogonalEdgeStyle;rounded=0;orthogonalLoop=1;jettySize=auto;html=1;" edge="1" parent="1" source="Ax0g_Lcv7hbXgT3HPlpm-4" target="Ax0g_Lcv7hbXgT3HPlpm-1">
          <mxGeometry relative="1" as="geometry">
            <Array as="points">
              <mxPoint x="414" y="250" />
              <mxPoint x="414" y="250" />
            </Array>
          </mxGeometry>
        </mxCell>
        <mxCell id="Ax0g_Lcv7hbXgT3HPlpm-4" value="用户" style="rounded=0;whiteSpace=wrap;html=1;" vertex="1" parent="1">
          <mxGeometry x="354" y="160" width="120" height="40" as="geometry" />
        </mxCell>
      </root>
    </mxGraphModel>
  </diagram>
</mxfile>
